<mxfile host="app.diagrams.net" modified="2024-05-12T10:11:51.246Z" agent="Mozilla/5.0 (Windows NT 10.0; Win64; x64) AppleWebKit/537.36 (KHTML, like Gecko) Chrome/124.0.0.0 Safari/537.36" etag="me_T2J_6AmnlXKS0x6IV" version="24.4.0" type="github">
  <diagram name="Page-1" id="7IqsSzJeFPsxc0n3IEx4">
    <mxGraphModel dx="880" dy="884" grid="0" gridSize="10" guides="1" tooltips="1" connect="1" arrows="1" fold="1" page="0" pageScale="1" pageWidth="827" pageHeight="1169" math="0" shadow="0">
      <root>
        <mxCell id="0" />
        <mxCell id="1" parent="0" />
        <mxCell id="RQJZl-HclO1YlfFGzQHk-26" style="edgeStyle=none;curved=1;rounded=0;orthogonalLoop=1;jettySize=auto;html=1;fontSize=13;startSize=8;endSize=8;fontFamily=Tahoma;" parent="1" source="RQJZl-HclO1YlfFGzQHk-5" target="RQJZl-HclO1YlfFGzQHk-22" edge="1">
          <mxGeometry relative="1" as="geometry" />
        </mxCell>
        <mxCell id="RQJZl-HclO1YlfFGzQHk-28" style="edgeStyle=none;curved=1;rounded=0;orthogonalLoop=1;jettySize=auto;html=1;fontSize=13;startSize=8;endSize=8;fontFamily=Tahoma;" parent="1" source="RQJZl-HclO1YlfFGzQHk-5" target="RQJZl-HclO1YlfFGzQHk-23" edge="1">
          <mxGeometry relative="1" as="geometry" />
        </mxCell>
        <mxCell id="RQJZl-HclO1YlfFGzQHk-29" style="edgeStyle=none;curved=1;rounded=0;orthogonalLoop=1;jettySize=auto;html=1;fontSize=13;startSize=8;endSize=8;fontFamily=Tahoma;" parent="1" source="RQJZl-HclO1YlfFGzQHk-5" target="RQJZl-HclO1YlfFGzQHk-20" edge="1">
          <mxGeometry relative="1" as="geometry" />
        </mxCell>
        <mxCell id="RQJZl-HclO1YlfFGzQHk-5" value="依定位" style="rounded=1;whiteSpace=wrap;html=1;absoluteArcSize=1;arcSize=14;strokeWidth=2;fontSize=13;fontStyle=0;fontFamily=Tahoma;fillColor=#f5f5f5;gradientColor=#b3b3b3;strokeColor=#666666;" parent="1" vertex="1">
          <mxGeometry x="314" y="112" width="122" height="34" as="geometry" />
        </mxCell>
        <mxCell id="RQJZl-HclO1YlfFGzQHk-6" value="Cannon Fodder&lt;div style=&quot;font-size: 13px;&quot;&gt;炮灰&lt;br style=&quot;font-size: 13px;&quot;&gt;&lt;/div&gt;" style="rounded=1;whiteSpace=wrap;html=1;absoluteArcSize=1;arcSize=14;strokeWidth=2;fillColor=#ffe6cc;strokeColor=#d79b00;fontFamily=Tahoma;fontSize=13;" parent="1" vertex="1">
          <mxGeometry x="160" y="114" width="103" height="34" as="geometry" />
        </mxCell>
        <mxCell id="RQJZl-HclO1YlfFGzQHk-79" style="edgeStyle=none;curved=1;rounded=0;orthogonalLoop=1;jettySize=auto;html=1;fontSize=13;startSize=8;endSize=8;fontFamily=Tahoma;" parent="1" source="RQJZl-HclO1YlfFGzQHk-7" target="RQJZl-HclO1YlfFGzQHk-6" edge="1">
          <mxGeometry relative="1" as="geometry" />
        </mxCell>
        <mxCell id="RQJZl-HclO1YlfFGzQHk-7" value="&lt;div style=&quot;font-size: 13px;&quot;&gt;MeatShield&lt;/div&gt;&lt;div style=&quot;font-size: 13px;&quot;&gt;量產肉盾&lt;br style=&quot;font-size: 13px;&quot;&gt;&lt;/div&gt;" style="rounded=1;whiteSpace=wrap;html=1;absoluteArcSize=1;arcSize=14;strokeWidth=2;fillColor=#ffe6cc;strokeColor=#d79b00;fontFamily=Tahoma;fontSize=13;" parent="1" vertex="1">
          <mxGeometry x="131" y="23" width="92" height="34" as="geometry" />
        </mxCell>
        <mxCell id="mwPOycNrIy3S_Xverg6i-1" value="" style="edgeStyle=none;curved=1;rounded=0;orthogonalLoop=1;jettySize=auto;html=1;fontSize=13;startSize=8;endSize=8;" parent="1" source="RQJZl-HclO1YlfFGzQHk-8" target="RQJZl-HclO1YlfFGzQHk-19" edge="1">
          <mxGeometry relative="1" as="geometry" />
        </mxCell>
        <mxCell id="RQJZl-HclO1YlfFGzQHk-8" value="&lt;div style=&quot;font-size: 13px;&quot;&gt;&lt;span style=&quot;background-color: initial; font-size: 13px;&quot;&gt;Critter&lt;/span&gt;&lt;/div&gt;&lt;div style=&quot;font-size: 13px;&quot;&gt;爆擊貓&lt;br style=&quot;font-size: 13px;&quot;&gt;&lt;/div&gt;" style="rounded=1;whiteSpace=wrap;html=1;absoluteArcSize=1;arcSize=14;strokeWidth=2;fillColor=#d5e8d4;strokeColor=#82b366;fontFamily=Tahoma;fontSize=13;" parent="1" vertex="1">
          <mxGeometry x="384" y="-30" width="92" height="34" as="geometry" />
        </mxCell>
        <mxCell id="RQJZl-HclO1YlfFGzQHk-9" value="&lt;div style=&quot;font-size: 13px;&quot;&gt;Waver&lt;br style=&quot;font-size: 13px;&quot;&gt;&lt;/div&gt;&lt;div style=&quot;font-size: 13px;&quot;&gt;波動貓&lt;br style=&quot;font-size: 13px;&quot;&gt;&lt;/div&gt;" style="rounded=1;whiteSpace=wrap;html=1;absoluteArcSize=1;arcSize=14;strokeWidth=2;fillColor=#f8cecc;strokeColor=#b85450;fontFamily=Tahoma;fontSize=13;" parent="1" vertex="1">
          <mxGeometry x="160" y="239" width="92" height="34" as="geometry" />
        </mxCell>
        <mxCell id="RQJZl-HclO1YlfFGzQHk-10" value="&lt;div style=&quot;font-size: 13px;&quot;&gt;&lt;span style=&quot;background-color: initial; font-size: 13px;&quot;&gt;Rusher&lt;/span&gt;&lt;br style=&quot;font-size: 13px;&quot;&gt;&lt;/div&gt;&lt;div style=&quot;font-size: 13px;&quot;&gt;&lt;span style=&quot;background-color: initial; font-size: 13px;&quot;&gt;特攻貓&lt;br style=&quot;font-size: 13px;&quot;&gt;&lt;/span&gt;&lt;/div&gt;" style="rounded=1;whiteSpace=wrap;html=1;absoluteArcSize=1;arcSize=14;strokeWidth=2;fillColor=#f8cecc;strokeColor=#b85450;fontFamily=Tahoma;fontSize=13;" parent="1" vertex="1">
          <mxGeometry x="472" y="311" width="92" height="34" as="geometry" />
        </mxCell>
        <mxCell id="RQJZl-HclO1YlfFGzQHk-11" value="&lt;div style=&quot;font-size: 13px;&quot;&gt;Tanker&lt;/div&gt;&lt;div style=&quot;font-size: 13px;&quot;&gt;&lt;span style=&quot;background-color: initial; font-size: 13px;&quot;&gt;大型坦克&lt;/span&gt;&lt;/div&gt;" style="rounded=1;whiteSpace=wrap;html=1;absoluteArcSize=1;arcSize=14;strokeWidth=2;fillColor=#ffe6cc;strokeColor=#d79b00;fontFamily=Tahoma;fontSize=13;" parent="1" vertex="1">
          <mxGeometry x="255" y="-52" width="92" height="34" as="geometry" />
        </mxCell>
        <mxCell id="RQJZl-HclO1YlfFGzQHk-12" value="&lt;div style=&quot;font-size: 13px;&quot;&gt;Barrier Breaker&lt;br style=&quot;font-size: 13px;&quot;&gt;&lt;/div&gt;&lt;div style=&quot;font-size: 13px;&quot;&gt;破護盾貓&lt;br style=&quot;font-size: 13px;&quot;&gt;&lt;/div&gt;" style="rounded=1;whiteSpace=wrap;html=1;absoluteArcSize=1;arcSize=14;strokeWidth=2;fillColor=#d5e8d4;strokeColor=#82b366;fontFamily=Tahoma;fontSize=13;" parent="1" vertex="1">
          <mxGeometry x="679" y="-30" width="103" height="34" as="geometry" />
        </mxCell>
        <mxCell id="RQJZl-HclO1YlfFGzQHk-13" value="&lt;div style=&quot;font-size: 13px;&quot;&gt;&lt;span style=&quot;background-color: initial; font-size: 13px;&quot;&gt;Demon Shield Breaker&lt;/span&gt;&lt;br style=&quot;font-size: 13px;&quot;&gt;&lt;/div&gt;&lt;div style=&quot;font-size: 13px;&quot;&gt;&lt;span style=&quot;background-color: initial; font-size: 13px;&quot;&gt;破惡魔盾貓&lt;br style=&quot;font-size: 13px;&quot;&gt;&lt;/span&gt;&lt;/div&gt;" style="rounded=1;whiteSpace=wrap;html=1;absoluteArcSize=1;arcSize=14;strokeWidth=2;fillColor=#d5e8d4;strokeColor=#82b366;fontFamily=Tahoma;fontSize=13;" parent="1" vertex="1">
          <mxGeometry x="654" y="51" width="141" height="34" as="geometry" />
        </mxCell>
        <mxCell id="RQJZl-HclO1YlfFGzQHk-15" value="&lt;div style=&quot;font-size: 13px;&quot;&gt;&lt;span style=&quot;background-color: initial; font-size: 13px;&quot;&gt;Nuker&lt;/span&gt;&lt;br style=&quot;font-size: 13px;&quot;&gt;&lt;/div&gt;&lt;div style=&quot;font-size: 13px;&quot;&gt;&lt;span style=&quot;background-color: initial; font-size: 13px;&quot;&gt;重攻貓&lt;br style=&quot;font-size: 13px;&quot;&gt;&lt;/span&gt;&lt;/div&gt;" style="rounded=1;whiteSpace=wrap;html=1;absoluteArcSize=1;arcSize=14;strokeWidth=2;fillColor=#f8cecc;strokeColor=#b85450;fontFamily=Tahoma;fontSize=13;" parent="1" vertex="1">
          <mxGeometry x="339" y="275" width="92" height="34" as="geometry" />
        </mxCell>
        <mxCell id="RQJZl-HclO1YlfFGzQHk-44" style="edgeStyle=none;curved=1;rounded=0;orthogonalLoop=1;jettySize=auto;html=1;fontSize=13;startSize=8;endSize=8;fontFamily=Tahoma;" parent="1" source="RQJZl-HclO1YlfFGzQHk-16" target="RQJZl-HclO1YlfFGzQHk-9" edge="1">
          <mxGeometry relative="1" as="geometry" />
        </mxCell>
        <mxCell id="RQJZl-HclO1YlfFGzQHk-16" value="&lt;div style=&quot;font-size: 13px;&quot;&gt;&lt;span style=&quot;background-color: initial; font-size: 13px;&quot;&gt;Sniper&lt;/span&gt;&lt;br style=&quot;font-size: 13px;&quot;&gt;&lt;/div&gt;&lt;div style=&quot;font-size: 13px;&quot;&gt;&lt;span style=&quot;background-color: initial; font-size: 13px;&quot;&gt;遠攻貓&lt;br style=&quot;font-size: 13px;&quot;&gt;&lt;/span&gt;&lt;/div&gt;" style="rounded=1;whiteSpace=wrap;html=1;absoluteArcSize=1;arcSize=14;strokeWidth=2;fillColor=#f8cecc;strokeColor=#b85450;fontFamily=Tahoma;fontSize=13;" parent="1" vertex="1">
          <mxGeometry x="295" y="198" width="92" height="34" as="geometry" />
        </mxCell>
        <mxCell id="RQJZl-HclO1YlfFGzQHk-71" style="edgeStyle=none;curved=1;rounded=0;orthogonalLoop=1;jettySize=auto;html=1;exitX=1;exitY=0.5;exitDx=0;exitDy=0;entryX=0;entryY=0.5;entryDx=0;entryDy=0;fontSize=13;startSize=8;endSize=8;fontFamily=Tahoma;" parent="1" source="RQJZl-HclO1YlfFGzQHk-17" target="RQJZl-HclO1YlfFGzQHk-45" edge="1">
          <mxGeometry relative="1" as="geometry" />
        </mxCell>
        <mxCell id="RQJZl-HclO1YlfFGzQHk-72" style="edgeStyle=none;curved=1;rounded=0;orthogonalLoop=1;jettySize=auto;html=1;exitX=1;exitY=0.5;exitDx=0;exitDy=0;entryX=0;entryY=0.5;entryDx=0;entryDy=0;fontSize=13;startSize=8;endSize=8;fontFamily=Tahoma;" parent="1" source="RQJZl-HclO1YlfFGzQHk-17" target="RQJZl-HclO1YlfFGzQHk-46" edge="1">
          <mxGeometry relative="1" as="geometry" />
        </mxCell>
        <mxCell id="RQJZl-HclO1YlfFGzQHk-73" style="edgeStyle=none;curved=1;rounded=0;orthogonalLoop=1;jettySize=auto;html=1;exitX=1;exitY=0.5;exitDx=0;exitDy=0;entryX=0;entryY=0.5;entryDx=0;entryDy=0;fontSize=13;startSize=8;endSize=8;fontFamily=Tahoma;" parent="1" source="RQJZl-HclO1YlfFGzQHk-17" target="RQJZl-HclO1YlfFGzQHk-47" edge="1">
          <mxGeometry relative="1" as="geometry" />
        </mxCell>
        <mxCell id="RQJZl-HclO1YlfFGzQHk-74" style="edgeStyle=none;curved=1;rounded=0;orthogonalLoop=1;jettySize=auto;html=1;exitX=1;exitY=0.5;exitDx=0;exitDy=0;entryX=0;entryY=0.5;entryDx=0;entryDy=0;fontSize=13;startSize=8;endSize=8;fontFamily=Tahoma;" parent="1" source="RQJZl-HclO1YlfFGzQHk-17" target="RQJZl-HclO1YlfFGzQHk-48" edge="1">
          <mxGeometry relative="1" as="geometry" />
        </mxCell>
        <mxCell id="RQJZl-HclO1YlfFGzQHk-17" value="&lt;div style=&quot;font-size: 13px;&quot;&gt;&lt;span style=&quot;background-color: initial; font-size: 13px;&quot;&gt;Crowd Controller&lt;/span&gt;&lt;/div&gt;&lt;div style=&quot;font-size: 13px;&quot;&gt;控場貓&lt;br style=&quot;font-size: 13px;&quot;&gt;&lt;/div&gt;" style="rounded=1;whiteSpace=wrap;html=1;absoluteArcSize=1;arcSize=14;strokeWidth=2;fillColor=#d5e8d4;strokeColor=#82b366;fontFamily=Tahoma;fontSize=13;" parent="1" vertex="1">
          <mxGeometry x="566" y="171" width="108" height="34" as="geometry" />
        </mxCell>
        <mxCell id="RQJZl-HclO1YlfFGzQHk-18" value="&lt;div style=&quot;font-size: 13px;&quot;&gt;&lt;span style=&quot;background-color: initial; font-size: 13px;&quot;&gt;User Rank Dump&lt;/span&gt;&lt;/div&gt;&lt;div style=&quot;font-size: 13px;&quot;&gt;等排貓&lt;br style=&quot;font-size: 13px;&quot;&gt;&lt;/div&gt;" style="rounded=1;whiteSpace=wrap;html=1;absoluteArcSize=1;arcSize=14;strokeWidth=2;fillColor=#d5e8d4;strokeColor=#82b366;fontFamily=Tahoma;fontSize=13;" parent="1" vertex="1">
          <mxGeometry x="528" y="-56" width="115" height="34" as="geometry" />
        </mxCell>
        <mxCell id="RQJZl-HclO1YlfFGzQHk-19" value="&lt;div style=&quot;font-size: 13px;&quot;&gt;&lt;span style=&quot;background-color: initial; font-size: 13px;&quot;&gt;Combo Slave&lt;/span&gt;&lt;br style=&quot;font-size: 13px;&quot;&gt;&lt;/div&gt;&lt;div style=&quot;font-size: 13px;&quot;&gt;&lt;span style=&quot;background-color: initial; font-size: 13px;&quot;&gt;聯組貓&lt;br style=&quot;font-size: 13px;&quot;&gt;&lt;/span&gt;&lt;/div&gt;" style="rounded=1;whiteSpace=wrap;html=1;absoluteArcSize=1;arcSize=14;strokeWidth=2;fillColor=#d5e8d4;strokeColor=#82b366;fontFamily=Tahoma;fontSize=13;" parent="1" vertex="1">
          <mxGeometry x="460" y="92" width="108" height="34" as="geometry" />
        </mxCell>
        <mxCell id="RQJZl-HclO1YlfFGzQHk-32" style="edgeStyle=none;curved=1;rounded=0;orthogonalLoop=1;jettySize=auto;html=1;fontSize=13;startSize=8;endSize=8;fontFamily=Tahoma;" parent="1" source="RQJZl-HclO1YlfFGzQHk-20" target="RQJZl-HclO1YlfFGzQHk-11" edge="1">
          <mxGeometry relative="1" as="geometry" />
        </mxCell>
        <mxCell id="RQJZl-HclO1YlfFGzQHk-33" style="edgeStyle=none;curved=1;rounded=0;orthogonalLoop=1;jettySize=auto;html=1;fontSize=13;startSize=8;endSize=8;fontFamily=Tahoma;" parent="1" source="RQJZl-HclO1YlfFGzQHk-20" target="RQJZl-HclO1YlfFGzQHk-7" edge="1">
          <mxGeometry relative="1" as="geometry" />
        </mxCell>
        <mxCell id="RQJZl-HclO1YlfFGzQHk-20" value="防守型" style="rounded=1;whiteSpace=wrap;html=1;absoluteArcSize=1;arcSize=14;strokeWidth=2;fontSize=13;fontStyle=0;fillColor=#f5f5f5;strokeColor=#666666;gradientColor=#b3b3b3;fontFamily=Tahoma;" parent="1" vertex="1">
          <mxGeometry x="269" y="30" width="102" height="34" as="geometry" />
        </mxCell>
        <mxCell id="RQJZl-HclO1YlfFGzQHk-41" style="edgeStyle=none;curved=1;rounded=0;orthogonalLoop=1;jettySize=auto;html=1;fontSize=13;startSize=8;endSize=8;fontFamily=Tahoma;" parent="1" source="RQJZl-HclO1YlfFGzQHk-22" target="RQJZl-HclO1YlfFGzQHk-10" edge="1">
          <mxGeometry relative="1" as="geometry" />
        </mxCell>
        <mxCell id="RQJZl-HclO1YlfFGzQHk-42" style="edgeStyle=none;curved=1;rounded=0;orthogonalLoop=1;jettySize=auto;html=1;fontSize=13;startSize=8;endSize=8;fontFamily=Tahoma;" parent="1" source="RQJZl-HclO1YlfFGzQHk-22" target="RQJZl-HclO1YlfFGzQHk-15" edge="1">
          <mxGeometry relative="1" as="geometry" />
        </mxCell>
        <mxCell id="RQJZl-HclO1YlfFGzQHk-43" style="edgeStyle=none;curved=1;rounded=0;orthogonalLoop=1;jettySize=auto;html=1;fontSize=13;startSize=8;endSize=8;fontFamily=Tahoma;" parent="1" source="RQJZl-HclO1YlfFGzQHk-22" target="RQJZl-HclO1YlfFGzQHk-16" edge="1">
          <mxGeometry relative="1" as="geometry" />
        </mxCell>
        <mxCell id="RQJZl-HclO1YlfFGzQHk-51" style="edgeStyle=none;curved=1;rounded=0;orthogonalLoop=1;jettySize=auto;html=1;fontSize=13;startSize=8;endSize=8;fontFamily=Tahoma;" parent="1" source="RQJZl-HclO1YlfFGzQHk-22" target="RQJZl-HclO1YlfFGzQHk-50" edge="1">
          <mxGeometry relative="1" as="geometry" />
        </mxCell>
        <mxCell id="RQJZl-HclO1YlfFGzQHk-22" value="攻擊型" style="rounded=1;whiteSpace=wrap;html=1;absoluteArcSize=1;arcSize=14;strokeWidth=2;fontSize=13;fontStyle=0;fillColor=#f5f5f5;strokeColor=#666666;gradientColor=#b3b3b3;fontFamily=Tahoma;" parent="1" vertex="1">
          <mxGeometry x="423" y="188" width="102" height="34" as="geometry" />
        </mxCell>
        <mxCell id="RQJZl-HclO1YlfFGzQHk-34" style="edgeStyle=none;curved=1;rounded=0;orthogonalLoop=1;jettySize=auto;html=1;fontSize=13;startSize=8;endSize=8;fontFamily=Tahoma;" parent="1" source="RQJZl-HclO1YlfFGzQHk-23" target="RQJZl-HclO1YlfFGzQHk-18" edge="1">
          <mxGeometry relative="1" as="geometry" />
        </mxCell>
        <mxCell id="RQJZl-HclO1YlfFGzQHk-35" style="edgeStyle=none;curved=1;rounded=0;orthogonalLoop=1;jettySize=auto;html=1;fontSize=13;startSize=8;endSize=8;fontFamily=Tahoma;" parent="1" source="RQJZl-HclO1YlfFGzQHk-23" target="RQJZl-HclO1YlfFGzQHk-8" edge="1">
          <mxGeometry relative="1" as="geometry" />
        </mxCell>
        <mxCell id="RQJZl-HclO1YlfFGzQHk-36" style="edgeStyle=none;curved=1;rounded=0;orthogonalLoop=1;jettySize=auto;html=1;fontSize=13;startSize=8;endSize=8;fontFamily=Tahoma;" parent="1" source="RQJZl-HclO1YlfFGzQHk-23" target="RQJZl-HclO1YlfFGzQHk-19" edge="1">
          <mxGeometry relative="1" as="geometry" />
        </mxCell>
        <mxCell id="RQJZl-HclO1YlfFGzQHk-37" style="edgeStyle=none;curved=1;rounded=0;orthogonalLoop=1;jettySize=auto;html=1;fontSize=13;startSize=8;endSize=8;fontFamily=Tahoma;" parent="1" source="RQJZl-HclO1YlfFGzQHk-23" target="RQJZl-HclO1YlfFGzQHk-12" edge="1">
          <mxGeometry relative="1" as="geometry" />
        </mxCell>
        <mxCell id="RQJZl-HclO1YlfFGzQHk-38" style="edgeStyle=none;curved=1;rounded=0;orthogonalLoop=1;jettySize=auto;html=1;fontSize=13;startSize=8;endSize=8;fontFamily=Tahoma;" parent="1" source="RQJZl-HclO1YlfFGzQHk-23" target="RQJZl-HclO1YlfFGzQHk-13" edge="1">
          <mxGeometry relative="1" as="geometry" />
        </mxCell>
        <mxCell id="RQJZl-HclO1YlfFGzQHk-39" style="edgeStyle=none;curved=1;rounded=0;orthogonalLoop=1;jettySize=auto;html=1;fontSize=13;startSize=8;endSize=8;fontFamily=Tahoma;" parent="1" source="RQJZl-HclO1YlfFGzQHk-23" target="RQJZl-HclO1YlfFGzQHk-17" edge="1">
          <mxGeometry relative="1" as="geometry" />
        </mxCell>
        <mxCell id="RQJZl-HclO1YlfFGzQHk-23" value="功能型" style="rounded=1;whiteSpace=wrap;html=1;absoluteArcSize=1;arcSize=14;strokeWidth=2;fontSize=13;fontStyle=0;fillColor=#f5f5f5;strokeColor=#666666;gradientColor=#b3b3b3;fontFamily=Tahoma;" parent="1" vertex="1">
          <mxGeometry x="512" y="12" width="102" height="34" as="geometry" />
        </mxCell>
        <mxCell id="RQJZl-HclO1YlfFGzQHk-45" value="&lt;div style=&quot;font-size: 13px;&quot;&gt;&lt;span style=&quot;background-color: initial; font-size: 13px;&quot;&gt;Melee&lt;/span&gt;&lt;/div&gt;&lt;div style=&quot;font-size: 13px;&quot;&gt;前排、近距離&lt;br style=&quot;font-size: 13px;&quot;&gt;&lt;/div&gt;" style="rounded=1;whiteSpace=wrap;html=1;absoluteArcSize=1;arcSize=14;strokeWidth=2;fillColor=#dae8fc;strokeColor=#6c8ebf;fontFamily=Tahoma;fontSize=13;" parent="1" vertex="1">
          <mxGeometry x="737" y="119" width="108" height="34" as="geometry" />
        </mxCell>
        <mxCell id="RQJZl-HclO1YlfFGzQHk-46" value="&lt;div style=&quot;font-size: 13px;&quot;&gt;&lt;span style=&quot;background-color: initial; font-size: 13px;&quot;&gt;Midranger&lt;/span&gt;&lt;/div&gt;&lt;div style=&quot;font-size: 13px;&quot;&gt;中排、中距離&lt;/div&gt;" style="rounded=1;whiteSpace=wrap;html=1;absoluteArcSize=1;arcSize=14;strokeWidth=2;fillColor=#dae8fc;strokeColor=#6c8ebf;fontFamily=Tahoma;fontSize=13;" parent="1" vertex="1">
          <mxGeometry x="737" y="176" width="108" height="34" as="geometry" />
        </mxCell>
        <mxCell id="RQJZl-HclO1YlfFGzQHk-47" value="&lt;div style=&quot;font-size: 13px;&quot;&gt;&lt;span style=&quot;background-color: initial; font-size: 13px;&quot;&gt;Backliner&lt;/span&gt;&lt;/div&gt;&lt;div style=&quot;font-size: 13px;&quot;&gt;後排、遠距離&lt;/div&gt;" style="rounded=1;whiteSpace=wrap;html=1;absoluteArcSize=1;arcSize=14;strokeWidth=2;fillColor=#dae8fc;strokeColor=#6c8ebf;fontFamily=Tahoma;fontSize=13;" parent="1" vertex="1">
          <mxGeometry x="737" y="233" width="108" height="34" as="geometry" />
        </mxCell>
        <mxCell id="RQJZl-HclO1YlfFGzQHk-48" value="&lt;div style=&quot;font-size: 13px;&quot;&gt;&lt;span style=&quot;background-color: initial; font-size: 13px;&quot;&gt;Super-Backliner&lt;/span&gt;&lt;/div&gt;&lt;div style=&quot;font-size: 13px;&quot;&gt;大後排、超遠距離&lt;br style=&quot;font-size: 13px;&quot;&gt;&lt;/div&gt;" style="rounded=1;whiteSpace=wrap;html=1;absoluteArcSize=1;arcSize=14;strokeWidth=2;fillColor=#dae8fc;strokeColor=#6c8ebf;fontFamily=Tahoma;fontSize=13;" parent="1" vertex="1">
          <mxGeometry x="735" y="289" width="108" height="34" as="geometry" />
        </mxCell>
        <mxCell id="RQJZl-HclO1YlfFGzQHk-75" style="edgeStyle=none;curved=1;rounded=0;orthogonalLoop=1;jettySize=auto;html=1;exitX=1;exitY=0.5;exitDx=0;exitDy=0;entryX=0;entryY=0.5;entryDx=0;entryDy=0;fontSize=13;startSize=8;endSize=8;fontFamily=Tahoma;" parent="1" source="RQJZl-HclO1YlfFGzQHk-50" target="RQJZl-HclO1YlfFGzQHk-48" edge="1">
          <mxGeometry relative="1" as="geometry" />
        </mxCell>
        <mxCell id="RQJZl-HclO1YlfFGzQHk-76" style="edgeStyle=none;curved=1;rounded=0;orthogonalLoop=1;jettySize=auto;html=1;exitX=1;exitY=0.5;exitDx=0;exitDy=0;entryX=0;entryY=0.5;entryDx=0;entryDy=0;fontSize=13;startSize=8;endSize=8;fontFamily=Tahoma;" parent="1" source="RQJZl-HclO1YlfFGzQHk-50" target="RQJZl-HclO1YlfFGzQHk-47" edge="1">
          <mxGeometry relative="1" as="geometry" />
        </mxCell>
        <mxCell id="RQJZl-HclO1YlfFGzQHk-77" style="edgeStyle=none;curved=1;rounded=0;orthogonalLoop=1;jettySize=auto;html=1;exitX=1;exitY=0.5;exitDx=0;exitDy=0;entryX=0;entryY=0.5;entryDx=0;entryDy=0;fontSize=13;startSize=8;endSize=8;fontFamily=Tahoma;" parent="1" source="RQJZl-HclO1YlfFGzQHk-50" target="RQJZl-HclO1YlfFGzQHk-46" edge="1">
          <mxGeometry relative="1" as="geometry" />
        </mxCell>
        <mxCell id="RQJZl-HclO1YlfFGzQHk-78" style="edgeStyle=none;curved=1;rounded=0;orthogonalLoop=1;jettySize=auto;html=1;exitX=1;exitY=0.5;exitDx=0;exitDy=0;entryX=0;entryY=0.5;entryDx=0;entryDy=0;fontSize=13;startSize=8;endSize=8;fontFamily=Tahoma;" parent="1" source="RQJZl-HclO1YlfFGzQHk-50" target="RQJZl-HclO1YlfFGzQHk-45" edge="1">
          <mxGeometry relative="1" as="geometry" />
        </mxCell>
        <mxCell id="RQJZl-HclO1YlfFGzQHk-50" value="&lt;div style=&quot;font-size: 13px;&quot;&gt;Attacker&lt;/div&gt;&lt;div style=&quot;font-size: 13px;&quot;&gt;攻擊貓&lt;/div&gt;" style="rounded=1;whiteSpace=wrap;html=1;absoluteArcSize=1;arcSize=14;strokeWidth=2;fillColor=#f8cecc;strokeColor=#b85450;fontFamily=Tahoma;fontSize=13;" parent="1" vertex="1">
          <mxGeometry x="574" y="255" width="92" height="34" as="geometry" />
        </mxCell>
      </root>
    </mxGraphModel>
  </diagram>
</mxfile>
